# xmcd
#
# Track frame offsets:
#	150
#	20317
#	38562
#	64007
#	86159
#	119506
#	170454
#	217037
#
# Disc length: 3186 seconds
#
# Revision: 0
# Processed by: cddbd v1.4PL0 Copyright (c) Steve Scherf et al.
# Submitted via: dBpowerAMP V4.0
#
DISCID=680c7008
DTITLE=Eric Clapton  - Live in Rotterdam 2001
DYEAR=2001
DGENRE=
TTITLE0=Traveling light
TTITLE1=Hoochie Coochie Man
TTITLE2=Five long Years
TTITLE3=Cocaine
TTITLE4=Wonderful tonight
TTITLE5=Layla
TTITLE6=Sunshine of my love
TTITLE7=Somewhere over the rainbow
EXTD=
EXTT0=
EXTT1=
EXTT2=
EXTT3=
EXTT4=
EXTT5=
EXTT6=
EXTT7=
PLAYORDER=
